<?xml version="1.0" standalone="no"?>
<!DOCTYPE svg PUBLIC "-//W3C//DTD SVG 20010904//EN"
 "http://www.w3.org/TR/2001/REC-SVG-20010904/DTD/svg10.dtd">
<svg version="1.0" xmlns="http://www.w3.org/2000/svg"
 width="120.000000pt" height="120.000000pt" viewBox="0 0 120.000000 120.000000"
 preserveAspectRatio="xMidYMid meet">
<metadata>
Created by potrace 1.11, written by Peter Selinger 2001-2013
</metadata>
<g transform="translate(0.000000,120.000000) scale(0.100000,-0.100000)"
fill="#000000" stroke="none">
<path d="M575 1188 c-3 -7 -25 -84 -49 -172 -25 -87 -46 -159 -48 -161 -2 -2
-46 21 -98 50 -52 30 -100 55 -106 55 -6 0 -17 -7 -24 -15 -10 -12 -2 -33 45
-116 31 -55 55 -103 52 -105 -3 -3 -79 -26 -168 -50 -90 -25 -168 -50 -174
-55 -25 -24 16 -45 176 -90 103 -29 163 -50 161 -57 -1 -7 -25 -52 -52 -100
-82 -144 -66 -159 81 -77 56 31 102 55 104 53 2 -2 23 -77 48 -167 25 -90 51
-169 57 -175 26 -26 45 12 89 175 25 90 46 166 47 168 2 2 48 -22 104 -53 153
-87 171 -71 85 78 -31 54 -55 100 -52 102 2 2 78 25 168 49 146 41 178 55 179
76 0 16 -36 30 -180 70 -85 23 -158 45 -162 48 -4 4 18 50 48 104 85 150 67
168 -82 82 -53 -30 -99 -53 -102 -50 -3 3 -26 80 -51 172 -41 149 -49 168 -69
171 -12 2 -24 -3 -27 -10z m20 -475 l-7 -91 -49 54 c-27 30 -49 61 -49 70 0 9
24 102 53 208 l52 191 3 -170 c2 -93 0 -211 -3 -262z m-136 22 c-3 -2 -19 -7
-35 -11 -28 -5 -31 -2 -87 98 l-58 103 93 -92 c51 -51 90 -95 87 -98z m371 95
c-95 -89 -109 -95 -110 -43 0 17 20 33 98 77 53 30 99 55 102 55 3 0 -38 -40
-90 -89z m109 -171 c102 -28 188 -53 190 -55 2 -2 -111 -4 -252 -4 -141 0
-257 3 -256 8 1 10 110 102 122 102 6 0 94 -23 196 -51z m-359 -64 c0 -7 -78
-77 -104 -93 -19 -12 -44 -7 -211 38 -105 29 -192 54 -194 56 -2 2 111 4 252
4 142 0 257 -2 257 -5z m80 -75 l51 -59 -52 -193 c-55 -205 -74 -256 -65 -174
3 27 6 147 6 267 0 121 2 219 4 219 2 0 27 -27 56 -60z m180 -97 c89 -158 89
-156 -10 -53 -76 79 -88 96 -73 102 39 15 51 7 83 -49z m-370 25 c0 -7 3 -22
6 -33 4 -17 -8 -28 -73 -64 -43 -25 -89 -51 -103 -59 -14 -9 15 26 65 76 89
92 105 103 105 80z"/>
</g>
</svg>
