<?xml version="1.0" encoding="utf-8"?>
<!DOCTYPE svg PUBLIC "-//W3C//DTD SVG 1.0//EN" "http://www.w3.org/TR/2001/REC-SVG-20010904/DTD/svg10.dtd">
<svg version="1.0" xmlns="http://www.w3.org/2000/svg" xmlns:xlink="http://www.w3.org/1999/xlink" x="0px" y="0px" width="555.577px" height="359.919px" viewBox="27.302 224.686 555.577 359.919" enable-background="new 27.302 224.686 555.577 359.919" xml:space="preserve">
	<path fill="#FFFFFF" d="M582.424,290.208c0-35.946-29.121-65.522-65.522-65.522H92.824c-36.401,0-65.522,29.121-65.522,65.522v228.874c0,35.946,29.121,65.522,65.522,65.522h424.532c35.946,0,65.522-29.121,65.522-65.522V290.208H582.424z M92.824,251.987h426.353c13.195,0,24.571,6.37,31.396,16.381l-244.8,169.722L61.427,268.367C68.253,258.357,79.629,251.987,92.824,251.987z M519.177,556.849H92.824c-20.931,0-38.222-18.201-38.222-39.132V297.033l250.261,174.271l250.26-174.271v220.684C555.123,538.648,540.107,556.849,519.177,556.849z"/>
</svg>