<?xml version="1.0" encoding="utf-8"?>
<!-- Generator: Adobe Illustrator 15.1.0, SVG Export Plug-In . SVG Version: 6.00 Build 0)  -->
<!DOCTYPE svg PUBLIC "-//W3C//DTD SVG 1.1//EN" "http://www.w3.org/Graphics/SVG/1.1/DTD/svg11.dtd">
<svg version="1.1" id="Calque_1" xmlns="http://www.w3.org/2000/svg" xmlns:xlink="http://www.w3.org/1999/xlink" x="0px" y="0px"
	 width="160.003px" height="40.073px" viewBox="224.922 376.844 160.003 40.073"
	 enable-background="new 224.922 376.844 160.003 40.073" xml:space="preserve">
<polygon fill="#FFFFFF" points="224.995,376.844 236.383,392.34 247.842,376.844 247.842,400.196 244.454,400.196 244.454,387.15 
	236.383,398.033 228.383,387.15 228.383,400.196 224.995,400.196 "/>
<polygon fill="#FFFFFF" points="287.336,378.429 295.481,389.168 303.554,378.429 307.806,378.429 297.14,392.484 297.14,400.196 
	293.752,400.196 293.752,392.484 283.157,378.429 "/>
<polygon fill="#FFFFFF" points="313.858,377.348 329.644,392.772 329.644,378.429 333.03,378.429 333.03,400.772 317.245,385.348 
	317.245,400.196 313.858,400.196 "/>
<polygon fill="#FFFFFF" points="366.399,378.429 384.925,378.429 384.925,381.673 377.214,381.673 377.214,400.196 373.823,400.196 
	373.823,381.673 366.399,381.673 "/>
<path fill="#FFFFFF" d="M351.696,384.484l-4.18,7.643h8.289L351.696,384.484z M351.696,377.348l12.396,22.847h-3.82l-2.594-4.826
	h-11.82l-2.594,4.826h-3.82L351.696,377.348z"/>
<g>
	<g>
		<g>
			<g>
				<path fill="#FFFFFF" d="M267.59,377.348c-6.774,0-12.252,5.261-12.252,11.676c0,6.414,5.479,11.675,12.252,11.675
					s12.252-5.261,12.252-11.675S274.364,377.348,267.59,377.348 M267.59,397.313c-4.758,0-8.647-3.676-8.647-8.289
					c0-4.541,3.893-8.288,8.647-8.288s8.647,3.678,8.647,8.288C276.237,393.637,272.347,397.313,267.59,397.313"/>
			</g>
		</g>
	</g>
</g>
<g>
	<g>
		<g>
			<g>
				<path fill="#FFFFFF" d="M311.913,409.997c0-1.805-1.367-2.886-3.604-2.886h-4.396v9.441h1.152v-3.532h2.883
					c0,0,2.523,3.391,2.598,3.532h1.297c-0.359-0.505-2.738-3.676-2.738-3.676l0.504-0.146
					C311.052,412.375,311.913,411.366,311.913,409.997 M308.169,412.159h-3.104v-4.036h3.104c1.654,0,2.594,0.721,2.594,2.018
					C310.688,411.294,309.681,412.159,308.169,412.159"/>
			</g>
		</g>
	</g>
</g>
<g>
	<g>
		<g>
			<g>
				<path fill="#FFFFFF" d="M290.004,416.627h1.297c0.072-0.216,1.152-2.161,1.152-2.161h5.552c0,0,1.082,2.018,1.15,2.161h1.297
					c-0.287-0.504-4.973-9.152-5.26-9.729C294.978,407.475,290.292,416.123,290.004,416.627 M293.104,413.313l2.162-4.036
					l2.16,4.036H293.104z"/>
			</g>
		</g>
	</g>
</g>
<g>
	<g>
		<g>
			<g>
				<rect x="316.526" y="407.115" fill="#FFFFFF" width="1.152" height="9.441"/>
			</g>
		</g>
	</g>
</g>
<g>
	<g>
		<g>
			<g>
				<path fill="#FFFFFF" d="M327.05,415.33c0.434-0.36,0.646-0.864,0.646-1.441c0-0.217-0.068-0.433-0.145-0.648
					c-0.072-0.217-0.215-0.357-0.359-0.574c-0.145-0.146-0.357-0.288-0.576-0.435c-0.217-0.145-0.506-0.288-0.793-0.357l-1.15-0.436
					c-1.518-0.577-2.234-1.298-2.234-2.379c0-0.646,0.287-1.225,0.938-1.729c0.646-0.504,1.439-0.724,2.379-0.724
					c1.15,0,2.09,0.436,2.736,1.369c-0.145,0.072-0.793,0.436-0.938,0.505c-0.217-0.357-0.506-0.577-0.721-0.646
					c-0.289-0.146-0.648-0.217-1.154-0.217c-0.576,0-1.008,0.145-1.441,0.433c-0.357,0.288-0.576,0.646-0.576,1.153
					c0,0.646,0.508,1.15,1.441,1.514l1.227,0.432c0.939,0.289,1.586,0.725,1.945,1.153c0.359,0.433,0.576,0.938,0.576,1.586
					c0,0.865-0.289,1.586-1.01,2.162c-0.648,0.576-1.516,0.865-2.521,0.865c-0.938,0-1.729-0.218-2.307-0.724
					c-0.576-0.433-0.865-1.01-1.08-1.802c0.143,0,1.08-0.217,1.225-0.217c0.072,0.505,0.219,0.865,0.436,1.081
					c0.432,0.505,1.008,0.793,1.801,0.793C326.11,415.906,326.688,415.691,327.05,415.33"/>
			</g>
		</g>
	</g>
</g>
<g>
	<g>
		<g>
			<g>
				<path fill="#FFFFFF" d="M284.813,407.115h-3.818v9.441h1.152v-3.243h2.451c2.377,0,3.893-1.226,3.893-3.1
					S287.122,407.115,284.813,407.115 M284.67,412.375h-2.521v-4.324h2.521c1.658,0,2.668,0.865,2.668,2.162
					S286.256,412.375,284.67,412.375"/>
			</g>
		</g>
	</g>
</g>
</svg>
