<?xml version="1.0" encoding="utf-8"?>
<!DOCTYPE svg PUBLIC "-//W3C//DTD SVG 1.0//EN" "http://www.w3.org/TR/2001/REC-SVG-20010904/DTD/svg10.dtd">
<svg version="1.0" id="Calque_1" xmlns="http://www.w3.org/2000/svg" xmlns:xlink="http://www.w3.org/1999/xlink" x="0px" y="0px" width="464.696px" height="512.806px" viewBox="78.343 140.962 464.696 512.806" enable-background="new 78.343 140.962 464.696 512.806" xml:space="preserve">
	<path fill="#FFFFFF" d="M310.323,377.572c65.067,0,118.305-53.237,118.305-118.305S375.39,140.962,310.323,140.962c-65.068,0-118.305,53.237-118.305,118.305S245.255,377.572,310.323,377.572z M310.323,168.718c50.052,0,91.004,40.952,91.004,91.004s-40.952,91.004-91.004,91.004c-50.053,0-91.004-40.952-91.004-91.004C219.774,209.67,260.27,168.718,310.323,168.718z"/>
	<path fill="#FFFFFF" d="M542.383,595.526C521.452,479.95,424.078,395.773,310.778,395.773S100.104,479.95,79.174,595.526c-2.73,15.016,1.364,29.576,10.92,41.406c9.101,10.921,22.751,16.836,36.856,16.836h367.655c14.105,0,27.756-5.915,36.856-16.836C541.017,625.557,544.658,610.541,542.383,595.526z M510.076,619.642c-4.095,5.005-10.011,7.28-15.926,7.28h-367.2c-6.37,0-11.83-2.275-15.926-7.28c-4.55-5.461-6.37-12.286-5.005-19.111c18.656-102.834,104.654-177.002,204.759-177.002c100.104,0,186.103,74.168,204.758,177.002C516.446,607.356,514.627,614.181,510.076,619.642z"/>
</svg>