<?xml version="1.0" encoding="utf-8"?>
<!-- Generator: Adobe Illustrator 15.1.0, SVG Export Plug-In . SVG Version: 6.00 Build 0)  -->
<!DOCTYPE svg PUBLIC "-//W3C//DTD SVG 1.1//EN" "http://www.w3.org/Graphics/SVG/1.1/DTD/svg11.dtd">
<svg version="1.1" id="Calque_1" xmlns="http://www.w3.org/2000/svg" xmlns:xlink="http://www.w3.org/1999/xlink" x="0px" y="0px"
	 width="468.163px" height="467.568px" viewBox="69.935 156.168 468.163 467.568"
	 enable-background="new 69.935 156.168 468.163 467.568" xml:space="preserve">
<g id="Calque_1_1_">
</g>
<g id="Calque_2">
	<path fill="#FFFFFF" d="M387.221,623.737c-6.825,0-13.651-0.455-20.477-1.365c-44.592-7.735-89.639-35.946-145.15-91.914
		l-57.788-58.242c-55.967-55.967-84.633-100.559-91.913-145.15c-8.646-51.872,11.375-101.015,59.152-146.971
		c9.1-8.646,19.11-17.291,33.216-21.841c17.746-5.461,37.312,0,51.872,14.105l0.91,1.364c14.561,18.656,29.121,37.767,43.227,56.423
		l13.651,18.2c8.645,16.381,10.92,31.852,6.37,45.047c-4.551,12.741-13.196,20.477-19.111,26.392l-0.91,0.455
		c-17.745,15.926-19.11,27.756-18.2,36.401c1.365,11.375,8.19,23.661,19.11,34.126l41.862,41.862
		c10.465,10.92,22.751,17.745,34.126,19.11c8.19,0.91,20.021-0.455,35.946-18.201l0.91-0.909
		c5.461-6.371,13.196-15.016,26.392-19.111c13.195-4.55,29.121-2.274,45.047,6.371l1.82,1.364l16.38,12.285
		c18.656,14.106,38.222,28.667,56.878,43.683l1.365,0.909c14.105,14.106,19.565,34.127,14.105,51.872
		c-4.551,14.106-13.196,24.571-21.841,33.672C475.495,602.351,431.358,623.737,387.221,623.737z M178.367,183.279
		c-2.274,0-4.095,0.455-5.915,0.91c-9.101,2.73-16.381,9.556-22.751,15.471c-40.951,39.587-58.242,80.993-51.417,122.855
		c6.825,38.221,32.762,78.718,84.179,130.135l57.787,57.787c51.872,51.872,91.914,77.809,130.591,84.179
		c41.406,6.37,85.088-11.831,122.854-51.417c5.916-6.37,12.741-13.65,15.471-22.751c1.82-5.915,0.91-15.471-6.825-23.661
		c-18.2-14.561-37.312-28.666-55.512-42.771l-15.016-10.921c-9.101-4.55-16.836-5.915-22.751-4.095
		c-5.916,1.819-10.011,6.37-14.561,11.83l-0.91,0.91c-18.201,20.476-37.767,29.576-59.152,27.301
		c-18.201-2.274-36.401-11.83-50.963-27.301l-41.406-41.406c-15.471-14.561-25.026-32.762-27.302-50.507
		c-2.274-21.842,6.826-41.407,27.302-59.607l0.91-0.91c5.005-4.551,9.555-8.646,11.83-14.561c1.82-5.916,0.455-13.651-4.095-22.751
		l-11.831-15.471c-13.65-18.201-28.211-37.312-42.316-55.513C190.198,185.099,183.828,183.279,178.367,183.279z"/>
</g>
</svg>
